<?xml version="1.0" standalone="no"?>
<!DOCTYPE svg PUBLIC "-//W3C//DTD SVG 20010904//EN"
 "http://www.w3.org/TR/2001/REC-SVG-20010904/DTD/svg10.dtd">
<svg version="1.0" xmlns="http://www.w3.org/2000/svg"
 width="96.000000pt" height="96.000000pt" viewBox="0 0 96.000000 96.000000"
 preserveAspectRatio="xMidYMid meet">

<g transform="translate(0.000000,96.000000) scale(0.100000,-0.100000)"
fill="#000000" stroke="none">
<path d="M391 849 c-62 -12 -127 -54 -152 -97 -19 -33 -27 -37 -59 -37 -97 0
-151 -116 -94 -203 15 -23 17 -24 26 -7 7 11 7 25 -1 42 -6 13 -11 35 -11 49
0 31 50 84 79 84 18 0 21 -6 21 -40 0 -22 4 -40 8 -40 5 0 22 20 39 44 40 57
83 80 131 71 36 -7 92 -56 92 -81 0 -8 5 -14 10 -14 6 0 10 6 10 14 0 25 56
74 92 81 48 9 91 -14 131 -71 17 -24 35 -44 40 -44 5 0 7 17 5 38 -3 32 0 37
20 40 29 4 82 -48 82 -82 0 -14 -5 -36 -11 -49 -8 -17 -8 -31 -1 -42 9 -17 11
-16 26 7 59 90 2 204 -100 202 -38 -1 -43 2 -57 32 -41 86 -183 131 -326 103z"/>
<path d="M511 580 c-5 -72 49 -225 91 -260 23 -19 22 -19 -119 -20 -79 0 -143
-4 -143 -9 0 -18 61 -60 96 -67 79 -15 152 12 184 69 13 24 13 28 -7 49 -34
37 -72 119 -87 188 -8 36 -14 58 -15 50z"/>
<path d="M441 564 c0 -11 3 -14 6 -6 3 7 2 16 -1 19 -3 4 -6 -2 -5 -13z"/>
<path d="M427 500 c-8 -39 -50 -124 -77 -155 -9 -11 -21 -27 -26 -35 -16 -29
40 15 64 50 26 38 55 132 50 158 -3 10 -7 3 -11 -18z"/>
<path d="M422 383 c4 -22 38 -30 38 -10 0 8 -7 18 -16 21 -23 9 -26 8 -22 -11z"/>
<path d="M513 393 c-7 -2 -13 -11 -13 -20 0 -20 34 -12 38 10 3 17 -3 20 -25
10z"/>
<path d="M101 250 c-7 -25 -21 -74 -31 -110 -10 -36 -23 -82 -28 -102 l-10
-38 97 0 98 0 12 76 c7 41 16 74 19 72 162 -87 282 -87 444 0 3 2 12 -31 19
-72 l12 -76 98 0 97 0 -10 37 c-60 223 -78 278 -78 240 0 -23 -16 -30 -42 -16
-18 9 -24 9 -34 -6 -9 -12 -20 -15 -43 -10 -28 6 -30 4 -33 -27 -3 -29 -10
-36 -62 -63 -53 -27 -70 -30 -146 -30 -76 0 -93 3 -146 30 -52 27 -59 34 -62
63 -3 31 -5 33 -33 27 -23 -5 -34 -2 -43 10 -10 14 -17 15 -34 6 -28 -15 -31
-14 -41 12 -8 20 -10 17 -20 -23z"/>
</g>
</svg>
