<?xml version="1.0" standalone="no"?>
<!DOCTYPE svg PUBLIC "-//W3C//DTD SVG 20010904//EN"
 "http://www.w3.org/TR/2001/REC-SVG-20010904/DTD/svg10.dtd">
<svg version="1.0" xmlns="http://www.w3.org/2000/svg"
 width="811.000000pt" height="953.000000pt" viewBox="0 0 811.000000 953.000000"
 preserveAspectRatio="xMidYMid meet">

<g transform="translate(0.000000,953.000000) scale(0.100000,-0.100000)"
fill="#000000" stroke="none">
<path d="M1 4958 c0 -2515 2 -4568 4 -4563 2 6 48 172 101 370 l98 360 -3 130
c-2 111 3 161 34 340 43 247 66 315 126 365 41 34 45 35 128 36 71 0 96 5 147
28 38 17 74 26 94 24 l33 -3 32 -115 33 -115 -25 -19 c-76 -59 -72 -188 12
-396 24 -58 60 -158 81 -224 l38 -118 60 -49 c52 -41 62 -45 68 -31 4 9 35
233 68 497 69 552 67 545 186 674 l66 71 -29 11 c-15 7 -95 15 -178 18 l-150
7 55 27 c45 22 69 27 130 27 128 0 222 -34 446 -163 82 -46 169 -95 193 -107
l44 -22 -26 -16 c-19 -12 -27 -25 -27 -44 0 -16 -4 -28 -8 -28 -5 0 -49 25
-98 57 -143 90 -298 183 -306 183 -12 0 -11 -1 32 -115 l40 -105 -6 -128 -7
-128 56 -21 c30 -12 93 -29 139 -39 45 -10 85 -19 87 -20 2 -2 -2 -17 -9 -34
-13 -31 -14 -32 -69 -26 -31 3 -91 8 -133 11 l-77 7 -5 -34 c-3 -18 -8 -64
-11 -103 -26 -305 -142 -989 -172 -1015 -5 -4 -79 -31 -166 -61 -135 -46 -159
-52 -168 -39 -5 8 -50 78 -100 155 -49 77 -125 211 -167 298 l-77 157 -67 -3
c-37 -1 -69 -5 -71 -7 -3 -3 -14 -81 -26 -175 -27 -216 -52 -337 -92 -449 -38
-103 -50 -112 -173 -123 l-74 -6 -56 109 -55 109 0 -192 -1 -193 4055 0 4055
0 -1 568 c0 516 -2 562 -15 512 -24 -90 -98 -228 -186 -345 -90 -120 -410
-453 -442 -460 -44 -10 -379 -45 -430 -45 -68 0 -93 19 -147 113 -23 40 -62
105 -87 146 l-45 73 7 155 7 154 -45 40 -46 41 0 76 0 77 118 170 119 170 12
85 c7 46 21 106 31 133 23 60 93 177 123 205 50 48 149 69 248 53 51 -9 74 -7
123 6 39 11 101 17 171 17 103 1 114 -1 175 -30 194 -91 279 -275 299 -639 4
-77 9 1749 9 4058 l2 4197 -4055 0 -4055 0 1 -4572z m5638 4324 c2 -130 6
-294 10 -364 l6 -126 534 285 c293 156 534 283 536 281 2 -2 -15 -64 -36 -138
-95 -322 -149 -589 -135 -664 4 -20 9 -36 11 -36 2 0 75 20 162 44 267 73 367
90 538 91 115 0 156 -3 177 -15 l27 -15 -111 -145 c-130 -171 -282 -395 -314
-465 -13 -27 -24 -64 -24 -81 l0 -31 78 -7 c229 -21 559 -94 675 -150 85 -41
126 -80 134 -128 l5 -36 -63 -7 c-389 -42 -613 -100 -634 -165 -5 -14 49 -106
204 -352 115 -183 205 -334 200 -336 -15 -6 -110 28 -180 65 -144 74 -270 205
-343 357 l-43 88 -14 -98 c-18 -130 -18 -488 0 -617 7 -54 12 -99 10 -102 -3
-2 -56 86 -119 195 l-115 200 -9 -353 -8 -353 -57 -36 c-31 -20 -75 -46 -99
-57 -23 -12 -40 -25 -38 -30 3 -4 -11 -13 -32 -19 -20 -6 -54 -25 -74 -42
l-37 -31 29 -46 c19 -29 30 -60 30 -82 0 -98 -107 -158 -207 -116 -19 8 -38
15 -40 15 -6 0 1 -37 11 -61 6 -13 -20 -37 -113 -104 -84 -61 -123 -95 -128
-113 -11 -46 6 -246 32 -357 50 -217 44 -333 -22 -406 -20 -22 -51 -43 -71
-49 -121 -33 -285 22 -358 121 -13 18 -23 34 -21 35 1 2 45 -13 97 -33 150
-56 264 -57 299 -1 24 38 25 135 2 240 -77 367 -39 652 115 851 31 40 40 57
27 53 -45 -13 -281 -57 -408 -75 -204 -29 -651 -70 -778 -71 -12 0 7 -11 43
-24 90 -32 174 -76 245 -128 61 -45 170 -147 164 -152 -2 -1 -78 3 -169 10
-91 7 -181 13 -201 13 -34 1 -37 3 -42 39 -4 21 -13 46 -21 57 -13 18 -14 18
-29 -11 -40 -77 -139 -132 -219 -121 -97 13 -148 82 -148 201 l0 74 -57 6
c-131 13 -203 17 -293 19 l-95 2 1 -150 0 -150 -38 120 c-53 163 -113 395
-140 540 -28 156 -32 443 -6 545 9 36 15 66 13 68 -5 5 -120 -158 -181 -258
-97 -160 -233 -450 -259 -551 -6 -23 -4 -24 57 -24 51 0 76 -6 128 -32 63 -32
175 -113 135 -99 -125 45 -235 23 -284 -58 -92 -149 -4 -398 194 -544 58 -43
59 -44 25 -38 -160 32 -318 193 -364 372 -18 71 -21 191 -5 247 7 27 7 53 -2
95 -8 36 -14 208 -18 468 l-6 412 -165 -100 c-129 -78 -331 -210 -359 -234 -2
-2 15 -68 37 -146 58 -202 91 -338 193 -792 49 -220 90 -400 92 -402 1 -1 70
-28 152 -59 238 -91 372 -162 386 -204 3 -6 168 14 427 51 233 33 424 59 426
57 2 -2 6 -22 9 -45 l7 -41 -403 -57 c-221 -32 -403 -58 -404 -60 -2 -1 171
-151 258 -223 13 -11 65 5 328 97 172 61 316 110 320 110 11 0 32 -73 23 -82
-5 -5 -458 -166 -562 -200 -15 -5 105 -107 127 -108 7 0 118 51 248 114 l235
115 21 -41 c11 -22 19 -41 17 -42 -2 -2 -100 -49 -218 -106 -118 -57 -216
-104 -218 -105 -5 -5 149 -110 246 -169 285 -172 426 -210 782 -210 296 0 373
25 518 167 51 51 107 109 123 129 l30 37 -73 -33 c-162 -74 -267 -75 -411 -3
-51 26 -105 57 -122 70 l-30 25 87 -29 c214 -72 400 -35 623 126 111 79 138
107 200 205 81 128 82 120 -19 113 l-86 -6 0 45 0 45 77 7 c42 3 93 6 113 6
36 0 37 0 85 100 26 55 46 103 43 105 -3 3 -60 0 -128 -5 -67 -6 -124 -9 -127
-6 -3 2 -7 22 -10 44 l-5 39 53 6 c30 4 100 9 156 13 l102 7 21 60 c11 34 20
65 20 69 0 4 -40 8 -90 8 l-90 0 0 45 0 45 99 0 c55 0 102 3 104 8 6 8 24 312
33 546 l6 159 27 -106 c32 -122 76 -218 122 -265 17 -17 61 -52 98 -76 166
-111 306 -256 441 -458 189 -285 320 -632 352 -934 9 -88 16 -117 27 -122 73
-25 168 -78 210 -117 72 -68 95 -119 89 -205 -9 -116 -67 -220 -220 -392 -74
-83 -82 -95 -172 -300 -117 -266 -251 -603 -307 -773 l-43 -130 -106 0 c-101
0 -109 -2 -154 -30 -27 -16 -58 -46 -70 -66 -11 -20 -33 -56 -48 -80 -29 -48
-63 -156 -73 -231 l-6 -47 -150 -3 -151 -3 2 -192 1 -191 -45 -50 c-43 -50
-44 -52 -51 -139 -10 -144 -35 -369 -55 -505 -16 -110 -23 -135 -53 -185 -117
-193 -215 -185 -279 21 -20 68 -21 81 -14 425 3 196 9 464 13 595 l6 239 -108
-6 c-98 -5 -113 -4 -145 14 -51 29 -70 66 -70 133 0 87 28 145 116 242 l79 87
366 -8 366 -7 -16 50 -16 49 -99 6 c-54 4 -100 8 -101 9 -1 2 2 61 7 131 17
272 91 511 200 650 16 20 27 37 24 37 -10 0 -271 -153 -370 -217 -183 -119
-347 -259 -384 -330 -7 -11 -34 -94 -61 -183 -43 -142 -54 -167 -90 -208 -23
-26 -49 -63 -58 -82 -20 -42 -29 -149 -16 -187 15 -42 -32 -191 -60 -195 -17
-2 -23 -15 -33 -70 -7 -36 -58 -207 -114 -380 l-102 -313 6 -138 c6 -112 12
-148 32 -197 29 -71 25 -83 -52 -169 -59 -66 -113 -95 -179 -95 -66 0 -120 29
-206 110 -52 49 -75 64 -98 64 -36 0 -79 -40 -105 -99 -11 -22 -22 -41 -25
-41 -15 0 -190 106 -241 145 -67 52 -142 131 -164 173 -41 79 -71 478 -63 847
l5 260 31 68 c17 37 57 113 88 167 l58 99 50 1 50 0 85 -136 c46 -74 87 -137
90 -139 7 -4 82 427 76 432 -4 4 -720 -104 -750 -113 -13 -4 -34 10 -75 49
-142 138 -325 212 -582 236 -183 17 -207 15 -310 -26 -80 -33 -99 -46 -154
-104 -37 -39 -77 -96 -96 -135 -38 -77 -39 -93 -25 -351 l7 -133 -105 0 -105
0 5 -32 c5 -44 24 -283 24 -314 0 -19 7 -28 30 -35 28 -10 30 -15 30 -59 0
-44 -5 -55 -54 -114 l-54 -66 16 -58 c25 -91 23 -280 -5 -367 -20 -62 -35 -84
-128 -190 -58 -66 -108 -119 -113 -117 -4 1 -21 40 -39 85 l-31 82 5 249 c5
212 4 249 -8 244 -8 -3 -106 -36 -219 -73 -113 -37 -207 -69 -208 -71 -2 -1
-8 -38 -13 -81 -12 -94 -77 -296 -123 -378 -70 -128 -157 -139 -272 -33 -44
40 -44 41 -44 108 0 82 18 146 63 219 33 53 34 59 26 111 -5 30 -20 91 -34
135 -24 76 -24 81 -7 101 9 12 39 48 65 80 118 144 230 349 282 514 25 81 65
286 65 335 0 17 21 38 84 83 46 34 131 99 190 146 l107 86 114 -46 c89 -36
115 -50 115 -65 0 -42 23 -120 42 -141 11 -13 17 -17 13 -10 -5 8 43 64 132
155 129 133 300 326 292 330 -2 1 -18 9 -35 18 l-31 16 -12 -32 c-20 -57 -125
-161 -199 -197 -62 -31 -74 -33 -167 -33 -94 0 -105 2 -176 36 -136 65 -250
147 -559 404 -268 223 -282 234 -369 294 -41 28 -71 51 -68 51 17 0 144 -63
234 -116 214 -125 480 -317 613 -441 41 -39 93 -79 115 -90 103 -53 221 -67
309 -37 65 22 153 104 167 156 23 86 -26 201 -149 348 -110 132 -508 521 -872
854 -76 69 -52 56 120 -67 467 -334 846 -702 965 -936 38 -77 63 -103 125
-130 95 -42 224 -6 333 91 l49 43 1 69 2 69 -85 3 c-235 8 -369 121 -379 317
-5 125 36 251 97 292 l34 23 -78 89 c-136 155 -353 369 -563 556 l-53 47 17
166 c9 91 14 168 12 171 -13 12 -172 24 -264 20 -293 -16 -495 -181 -608 -497
-26 -74 -28 -76 -102 -125 -97 -65 -210 -184 -255 -271 -57 -109 -72 -172 -72
-309 l-1 -121 -43 -49 c-88 -103 -122 -206 -122 -375 0 -127 14 -223 61 -408
29 -120 55 -176 117 -260 l24 -32 -21 -178 c-29 -242 -23 -224 -74 -220 l-42
3 -42 125 c-107 320 -221 735 -282 1030 -91 440 -105 826 -40 1061 60 217 200
360 389 398 l55 11 25 83 c31 104 102 245 161 322 62 81 171 182 269 250 60
43 80 62 80 79 0 67 129 106 414 127 83 7 152 13 154 14 2 2 -26 101 -62 222
-155 520 -264 931 -273 1033 -16 188 119 420 294 502 60 29 78 33 153 32 48 0
102 -6 125 -15 39 -14 41 -14 89 19 28 18 63 36 78 39 16 3 30 9 33 13 8 14
-391 320 -590 453 -66 44 -151 94 -188 112 l-69 32 69 6 c412 38 872 55 946
34 26 -7 17 10 -99 180 -177 261 -306 443 -381 542 -35 45 -62 85 -60 88 3 2
216 -34 473 -81 258 -47 469 -84 470 -83 2 1 5 160 9 352 3 193 8 369 11 393
l5 42 365 -276 c201 -152 367 -274 369 -272 2 1 42 149 90 328 87 329 134 496
161 583 l16 48 71 -119 c40 -65 130 -213 201 -330 l130 -211 30 23 c172 130
992 726 1000 726 1 0 3 -107 5 -238z m-3434 -862 c3 -5 1 -10 -4 -10 -6 0 -11
5 -11 10 0 6 2 10 4 10 3 0 8 -4 11 -10z m1430 -6224 c221 -57 392 -174 514
-350 38 -55 41 -64 41 -127 0 -130 -51 -239 -163 -346 -79 -76 -150 -122 -303
-194 -160 -76 -207 -131 -190 -222 6 -29 60 -69 593 -437 323 -223 621 -429
662 -458 l76 -53 -230 3 -230 3 -120 49 c-147 59 -517 245 -799 400 -115 64
-210 115 -211 113 -1 -1 -22 -58 -46 -126 -53 -149 -70 -166 -164 -166 -47 1
-71 7 -114 30 -104 57 -134 149 -87 266 21 54 26 82 26 158 0 87 -2 94 -29
129 -37 46 -51 106 -40 168 10 52 47 139 79 184 20 28 20 33 9 262 -21 435
-21 431 66 553 63 88 101 120 190 159 l80 36 145 -4 c114 -4 166 -10 245 -30z"/>
<path d="M6225 7323 c-342 -9 -736 -38 -945 -69 -318 -46 -546 -120 -623 -201
-27 -29 -190 -314 -183 -321 2 -2 24 2 47 9 27 7 122 13 239 14 338 4 875 89
1620 257 124 28 238 53 253 56 15 2 27 8 25 12 -2 4 -34 62 -73 128 l-70 122
-100 -2 c-55 -1 -140 -3 -190 -5z"/>
<path d="M2203 6796 c-61 -20 -107 -51 -158 -109 -76 -84 -125 -204 -125 -304
0 -94 143 -607 335 -1203 153 -474 213 -669 221 -722 6 -32 -10 -249 -21 -304
-4 -17 33 -56 183 -196 170 -159 339 -333 448 -461 l40 -48 257 173 257 172
-58 26 c-219 100 -355 410 -497 1130 -125 633 -275 1235 -366 1471 -55 142
-187 297 -301 353 -65 32 -156 41 -215 22z"/>
<path d="M6197 6630 l-36 -39 -48 22 c-40 18 -66 22 -153 22 -95 0 -110 -3
-164 -29 -74 -36 -179 -135 -244 -229 -61 -89 -156 -277 -145 -287 11 -10 183
-57 278 -76 104 -21 275 -21 338 -1 107 34 166 106 175 213 13 151 -104 260
-240 224 -82 -22 -137 -111 -119 -190 7 -31 26 -76 37 -89 2 -2 21 8 43 23 38
26 39 28 25 54 -21 40 -17 68 12 91 38 30 80 27 115 -8 24 -25 29 -37 29 -81
0 -102 -55 -147 -196 -157 -69 -6 -76 -4 -114 22 -84 58 -109 150 -72 272 20
64 25 70 77 105 105 69 210 71 331 7 31 -17 57 -29 58 -27 1 2 31 34 66 71
l65 69 -35 29 c-19 15 -38 29 -41 29 -4 0 -23 -18 -42 -40z m-538 -476 c12
-19 21 -37 21 -39 0 -4 -140 32 -146 37 -2 2 18 40 43 84 l47 79 8 -63 c4 -35
16 -79 27 -98z"/>
<path d="M4010 3921 c-14 -4 -235 -148 -491 -318 -444 -296 -466 -312 -483
-354 -25 -61 -33 -194 -14 -239 50 -119 182 -171 377 -149 171 19 260 53 638
240 219 108 249 126 316 189 99 93 139 167 145 270 3 60 0 87 -18 132 -30 80
-104 159 -187 200 -59 29 -77 33 -162 35 -53 1 -107 -1 -121 -6z"/>
<path d="M6088 3720 c-518 -340 -754 -383 -1124 -206 -60 29 -150 76 -198 105
l-89 52 28 -48 c84 -142 127 -198 267 -339 l150 -152 -11 -423 c-6 -233 -13
-453 -16 -489 -2 -38 -1 -59 4 -50 5 8 72 233 150 500 78 267 144 493 147 503
3 10 52 41 116 73 220 110 433 258 573 398 70 70 153 166 143 166 -1 0 -65
-41 -140 -90z"/>
<path d="M5358 2155 c-75 -47 -139 -93 -142 -103 -3 -9 -23 -102 -46 -207 -23
-104 -46 -209 -52 -232 l-10 -43 -173 0 -173 0 -11 -82 c-46 -336 -39 -570 21
-687 19 -36 30 -47 52 -49 105 -13 273 391 401 965 30 135 56 247 57 248 2 2
63 40 136 85 73 46 131 88 129 94 -31 77 -40 96 -46 96 -3 0 -68 -39 -143 -85z"/>
<path d="M2192 1351 c-61 -119 -61 -121 36 -121 53 0 62 3 61 18 0 24 -35 202
-40 205 -2 2 -28 -44 -57 -102z"/>
<path d="M3523 1741 c-38 -46 -117 -87 -185 -97 -47 -6 -48 -7 -48 -43 0 -50
14 -61 77 -61 79 0 153 32 207 90 55 59 61 97 20 129 -15 12 -29 21 -33 21 -3
0 -21 -18 -38 -39z"/>
<path d="M7353 1447 c-78 -72 -126 -179 -166 -373 -31 -149 -41 -241 -32 -306
6 -40 16 -60 48 -95 38 -42 44 -45 80 -40 53 7 130 62 221 157 58 61 85 100
125 181 66 135 85 210 78 314 -5 76 -27 156 -51 182 -7 7 -57 13 -136 15
l-125 3 -42 -38z"/>
</g>
</svg>
