<?xml version="1.0" standalone="no"?>
<!DOCTYPE svg PUBLIC "-//W3C//DTD SVG 20010904//EN"
 "http://www.w3.org/TR/2001/REC-SVG-20010904/DTD/svg10.dtd">
<svg version="1.0" xmlns="http://www.w3.org/2000/svg"
 width="100.000000pt" height="100.000000pt" viewBox="0 0 100.000000 100.000000"
 preserveAspectRatio="xMidYMid meet">

<g transform="translate(0.000000,100.000000) scale(0.100000,-0.100000)"
fill="#000000" stroke="none">
<path d="M364 918 c-15 -29 -28 -55 -29 -56 -2 -2 -33 13 -70 33 -83 47 -91
42 -76 -51 5 -37 8 -71 5 -76 -3 -4 -22 -8 -42 -9 -48 -1 -85 -12 -89 -26 -2
-6 18 -24 46 -39 37 -21 47 -32 40 -41 -17 -19 -1 -33 37 -33 34 0 34 0 34
-45 0 -33 -4 -45 -15 -45 -32 0 -55 -38 -55 -91 0 -46 4 -55 40 -91 22 -23 40
-47 40 -55 0 -20 35 -86 65 -121 33 -40 165 -112 205 -112 40 0 172 72 205
112 30 35 65 101 65 121 0 8 18 32 40 55 36 36 40 45 40 91 0 53 -23 91 -55
91 -11 0 -15 12 -15 45 l0 44 78 3 c96 4 100 18 20 65 l-56 33 20 66 c12 42
16 70 10 76 -6 6 -31 0 -68 -15 -32 -14 -62 -23 -66 -20 -5 2 -9 21 -9 41 -2
52 -12 95 -24 99 -6 2 -40 -22 -75 -52 -36 -30 -67 -55 -70 -55 -3 0 -34 25
-70 55 -35 30 -68 55 -72 55 -4 0 -20 -24 -34 -52z m245 -29 l70 61 6 -57 c4
-32 10 -68 13 -80 l7 -22 66 28 67 28 -19 -66 c-21 -73 -22 -71 48 -112 l48
-29 -374 0 c-324 0 -372 2 -362 14 10 12 3 20 -39 44 -58 33 -62 30 43 47 l39
6 -7 52 c-3 29 -9 65 -12 81 -5 29 -5 30 18 15 13 -9 45 -28 71 -43 l47 -27
31 61 31 61 69 -62 70 -62 69 62z m21 -314 l0 -55 -130 0 -130 0 0 55 0 55
130 0 130 0 0 -55z m-385 -120 c9 -30 18 -55 20 -55 2 0 9 25 15 55 l12 56
180 -2 180 -2 51 -39 52 -39 9 41 c9 41 30 52 54 28 20 -20 15 -105 -8 -128
-11 -11 -25 -20 -30 -20 -6 0 -15 -11 -20 -24 l-9 -24 -62 19 c-34 11 -64 17
-66 15 -3 -2 22 -12 54 -22 72 -22 78 -27 64 -52 -11 -20 -13 -20 -47 -6 -20
8 -38 13 -41 11 -2 -3 12 -11 31 -18 20 -7 36 -18 36 -24 0 -36 -165 -145
-220 -145 -55 0 -220 109 -220 145 0 6 16 17 36 24 19 7 33 15 31 18 -3 2 -21
-3 -41 -11 -36 -15 -37 -15 -48 9 -6 14 -9 26 -7 28 2 2 30 11 62 21 32 10 57
19 55 22 -3 2 -27 -3 -54 -11 -62 -19 -74 -19 -74 0 0 8 -13 21 -29 29 -34 18
-41 33 -41 90 0 45 13 66 42 66 13 0 22 -15 33 -55z m31 39 c-3 -9 -6 -25 -6
-36 0 -28 -8 -19 -20 21 -8 27 -6 31 12 31 14 0 18 -5 14 -16z m483 4 c0 -7
-4 -21 -7 -31 -7 -15 -11 -14 -42 12 l-35 30 43 1 c27 0 42 -4 41 -12z"/>
<path d="M384 609 c-10 -17 13 -36 27 -22 12 12 4 33 -11 33 -5 0 -12 -5 -16
-11z"/>
<path d="M472 607 c-6 -7 -16 -25 -21 -40 l-11 -28 43 3 c34 2 43 7 45 24 3
22 -21 39 -39 28 -15 -9 -10 -34 6 -34 8 0 15 5 15 11 0 5 -4 7 -10 4 -5 -3
-10 -1 -10 5 0 18 25 6 28 -14 3 -13 -2 -17 -20 -14 -17 2 -23 9 -23 28 0 21
5 25 32 25 43 0 49 9 8 12 -18 2 -37 -3 -43 -10z"/>
<path d="M584 609 c-10 -17 13 -36 27 -22 12 12 4 33 -11 33 -5 0 -12 -5 -16
-11z"/>
<path d="M384 559 c-10 -17 13 -36 27 -22 12 12 4 33 -11 33 -5 0 -12 -5 -16
-11z"/>
<path d="M584 559 c-10 -17 13 -36 27 -22 12 12 4 33 -11 33 -5 0 -12 -5 -16
-11z"/>
<path d="M613 489 c11 -7 23 -7 28 -2 5 5 -3 9 -19 11 -24 1 -25 0 -9 -9z"/>
<path d="M327 459 c-26 -15 -10 -30 19 -17 20 9 32 8 60 -5 39 -19 54 -21 54
-8 0 9 -78 41 -100 41 -8 0 -23 -5 -33 -11z"/>
<path d="M598 453 c-21 -9 -38 -20 -38 -24 0 -13 15 -11 54 8 28 13 40 14 60
5 30 -14 45 2 17 17 -26 14 -48 13 -93 -6z"/>
<path d="M367 408 c-21 -23 -11 -42 19 -36 12 2 19 12 19 27 0 31 -15 35 -38
9z"/>
<path d="M627 408 c-21 -23 -11 -42 19 -36 12 2 19 12 19 27 0 31 -15 35 -38
9z"/>
<path d="M429 200 c16 -14 38 -20 71 -20 33 0 55 6 71 20 20 16 21 19 7 20 -9
0 -20 -4 -23 -10 -3 -5 -28 -10 -55 -10 -27 0 -52 5 -55 10 -3 6 -14 10 -23
10 -14 -1 -13 -4 7 -20z"/>
</g>
</svg>
